<?xml version="1.0" standalone="no"?>
<!DOCTYPE svg PUBLIC "-//W3C//DTD SVG 20010904//EN"
 "https://www.w3.org/TR/2001/REC-SVG-20010904/DTD/svg10.dtd">
<svg version="1.0" xmlns="https://www.w3.org/2000/svg"
 width="120.000000pt" height="120.000000pt" viewBox="0 0 120.000000 120.000000"
 preserveAspectRatio="xMidYMid meet">
<metadata>
Created by potrace 1.11, written by Peter Selinger 2001-2013
</metadata>
<g transform="translate(0.000000,120.000000) scale(0.100000,-0.100000)"
fill="#000000" stroke="none">
<path d="M918 1101 c-25 -16 -55 -42 -67 -59 -51 -72 -109 -244 -112 -332 -3
-95 0 -109 34 -147 30 -32 40 -37 88 -39 91 -3 137 29 181 126 17 35 32 76 34
90 3 14 10 41 16 60 17 53 11 261 -9 293 -8 14 -22 -14 -29 -59 -3 -22 -9 -56
-14 -76 -4 -20 -5 -48 -3 -61 5 -27 -62 -225 -82 -242 -6 -5 -10 -15 -8 -21 5
-14 -43 -32 -79 -31 -40 3 -50 19 -50 83 0 137 89 341 161 371 48 20 55 34 30
56 -28 23 -37 22 -91 -12z"/>
<path d="M571 1084 c-61 -31 -87 -68 -136 -188 -39 -98 -54 -160 -59 -245 -5
-64 -4 -65 33 -102 50 -51 111 -61 176 -29 24 12 53 35 62 51 10 16 22 29 27
29 5 0 7 3 3 6 -3 4 5 27 18 53 13 25 26 60 29 76 3 17 8 41 11 55 9 32 8 235
-1 262 -5 16 -8 18 -15 7 -18 -29 -42 -126 -44 -184 -1 -33 -8 -73 -15 -90 -8
-16 -14 -32 -14 -35 -5 -25 -50 -120 -57 -120 -5 0 -9 -7 -9 -15 0 -34 -91
-46 -113 -14 -15 20 -11 139 5 165 4 6 9 23 12 38 3 15 10 34 17 42 6 8 9 14
5 14 -10 0 52 117 76 145 12 14 39 30 60 36 41 10 48 28 22 53 -21 21 -31 20
-93 -10z"/>
<path d="M334 1038 c-16 -13 -34 -27 -40 -33 -6 -5 -35 -28 -64 -50 -28 -22
-64 -51 -78 -64 l-26 -24 23 -18 c22 -18 24 -18 77 13 30 17 57 29 58 27 4 -4
-26 -84 -110 -294 -65 -163 -83 -306 -42 -331 6 -4 8 -3 4 4 -3 6 -2 13 4 17
5 3 10 16 10 28 1 12 9 40 20 62 11 22 19 51 20 65 0 24 23 68 43 81 5 3 8 10
7 15 -1 8 15 49 43 114 6 14 12 30 12 35 3 27 28 85 37 85 5 0 8 6 6 12 -3 7
6 34 19 59 13 26 23 53 23 61 0 8 4 18 10 24 18 18 38 100 28 118 -13 23 -50
20 -84 -6z"/>
<path d="M694 429 c-2 -4 -23 -8 -47 -8 -53 -1 -87 -6 -162 -26 -166 -43 -179
-51 -155 -94 8 -16 15 -17 57 -9 26 5 54 10 61 11 6 0 12 4 12 9 0 5 4 7 8 4
5 -3 26 0 48 6 21 6 55 12 74 14 19 1 53 6 75 9 22 4 76 8 120 10 44 2 82 4
85 6 10 4 25 7 53 8 69 3 -2 54 -82 58 -31 2 -75 4 -99 6 -24 2 -45 0 -48 -4z"/>
<path d="M665 241 c-4 -3 -23 -6 -43 -7 -96 -5 -139 -13 -319 -59 -84 -21
-154 -50 -164 -67 -12 -22 24 -53 48 -42 10 4 28 9 39 10 12 1 41 8 65 15 24
7 49 13 54 15 6 1 28 7 50 13 37 10 138 27 210 36 17 2 53 6 80 9 28 3 79 8
115 11 206 15 244 27 172 57 -28 12 -297 20 -307 9z"/>
</g>
</svg>
